.
..............................Site Info...........................

 -   http://www.scenetime.com  *_*   


Scenetime .Always on time . friendly online private torrent community ..

     We care to share . Join us on  http://www.scenetime.com 

    Be the first to get new release at  http://www.scenetime.com

        Seed back for speed


...................................NFO:.................................................The Guyver 1991 dvdrip eng ws mp3 xvid-bytor
 
http://www.imdb.com/title/tt0101988/

A young man discovers a mechanical device that merges with his own body, 
turning him into a cyborg superhero. When strange creatures start appearing, 
trying to take the device back, he begins to uncover a secret plot to 
genetically engineer terrifying monsters.

Format                           : AVI
Format/Info                      : Audio Video Interleave
File size                        : 1.37 GiB
Duration                         : 1h 32mn
Overall bit rate                 : 2 110 Kbps
Writing application              : VirtualDubMod 1.5.4.1 (build 2178/release)
Writing library                  : VirtualDubMod build 2178/release

Video
ID                               : 0
Format                           : MPEG-4 Visual
Format profile                   : Simple@L3
Format settings, BVOP            : No
Format settings, QPel            : No
Format settings, GMC             : No warppoints
Format settings, Matrix          : Default (H.263)
Codec ID                         : XVID
Codec ID/Hint                    : XviD
Duration                         : 1h 32mn
Bit rate                         : 1 975 Kbps
Width                            : 656 pixels
Height                           : 368 pixels
Display aspect ratio             : 16:9
Frame rate                       : 23.976 fps
Resolution                       : 8 bits
Colorimetry                      : 4:2:0
Scan type                        : Progressive
Bits/(Pixel*Frame)               : 0.341
Stream size                      : 1.28 GiB (94%)
Writing library                  : XviD 1.1.0 (UTC 2005-11-22)

Audio
ID                               : 1
Format                           : MPEG Audio
Format version                   : Version 1
Format profile                   : Layer 3
Mode                             : Joint stereo / MS Stereo
Codec ID                         : 55
Codec ID/Hint                    : MP3
Duration                         : 1h 32mn
Bit rate mode                    : Constant
Bit rate                         : 128 Kbps
Channel(s)                       : 2 channels
Sampling rate                    : 48.0 KHz
Stream size                      : 84.9 MiB (6%)
Alignment                        : Aligned on interleaves
Interleave, duration             : 83 ms (2.00 video frames)
Interleave, preload duration     : 504 ms
Writing library                  : LAME3.97 
Encoding settings                : -m j -V 4 -q 2 -lowpass 17 -b 128
Language                         : English